<svg xmlns="http://www.w3.org/2000/svg" width="70" height="70" viewBox="0 0 70 70" fill="none">
  <path d="M58.8002 35C58.8002 48.16 48.1602 58.8 35.0002 58.8C21.8402 58.8 11.2002 48.16 11.2002 35C11.2002 21.84 21.8402 11.2 35.0002 11.2C48.1602 11.2 58.8002 21.84 58.8002 35ZM14.0002 35C14.0002 46.62 23.3802 56 35.0002 56C46.6202 56 56.0002 46.62 56.0002 35C56.0002 23.38 46.6202 14 35.0002 14C23.3802 14 14.0002 23.38 14.0002 35Z" fill="#333333"/>
  <path d="M37.3798 23.38L25.7598 35L37.3798 46.62L35.4198 48.58L21.8398 35L35.4198 21.42L37.3798 23.38Z" fill="#333333"/>
  <path d="M23.7998 36.4L23.7998 33.6L47.5998 33.6L47.5998 36.4L23.7998 36.4Z" fill="#333333"/>
</svg>