<svg xmlns="http://www.w3.org/2000/svg" width="70" height="70" viewBox="0 0 70 70" fill="none">
  <path d="M11.1998 35C11.1998 48.16 21.8398 58.8 34.9998 58.8C48.1598 58.8 58.7998 48.16 58.7998 35C58.7998 21.84 48.1598 11.2 34.9998 11.2C21.8398 11.2 11.1998 21.84 11.1998 35ZM55.9998 35C55.9998 46.62 46.6198 56 34.9998 56C23.3798 56 13.9998 46.62 13.9998 35C13.9998 23.38 23.3798 14 34.9998 14C46.6198 14 55.9998 23.38 55.9998 35Z" fill="#333333"/>
  <path d="M32.6202 23.38L44.2402 35L32.6202 46.62L34.5802 48.58L48.1602 35L34.5802 21.42L32.6202 23.38Z" fill="#333333"/>
  <path d="M46.2002 36.4L46.2002 33.6L22.4002 33.6L22.4002 36.4L46.2002 36.4Z" fill="#333333"/>
</svg>