<svg xmlns="http://www.w3.org/2000/svg" width="40" height="40" viewBox="0 0 40 40" fill="none">
  <path d="M11.1513 27.1516C10.6826 27.6202 10.6826 28.3799 11.1513 28.8485C11.6199 29.3172 12.3797 29.3172 12.8483 28.8485L11.1513 27.1516ZM20.8483 20.8485C21.3169 20.3799 21.3169 19.6202 20.8483 19.1516C20.3796 18.6829 19.62 18.6829 19.1513 19.1516L20.8483 20.8485ZM19.1513 19.1516C18.6827 19.6202 18.6827 20.3799 19.1513 20.8485C19.62 21.3172 20.3796 21.3172 20.8483 20.8485L19.1513 19.1516ZM28.8483 12.8486C29.3169 12.3799 29.3169 11.6201 28.8483 11.1515C28.3796 10.6829 27.62 10.6829 27.1513 11.1515L28.8483 12.8486ZM20.8483 19.1516C20.3796 18.6829 19.62 18.6829 19.1513 19.1516C18.6827 19.6202 18.6827 20.3799 19.1513 20.8485L20.8483 19.1516ZM27.1513 28.8485C27.62 29.3172 28.3796 29.3172 28.8483 28.8485C29.3169 28.3799 29.3169 27.6202 28.8483 27.1516L27.1513 28.8485ZM19.1513 20.8485C19.62 21.3172 20.3796 21.3172 20.8483 20.8485C21.3169 20.3799 21.3169 19.6202 20.8483 19.1516L19.1513 20.8485ZM12.8483 11.1515C12.3797 10.6829 11.6199 10.6829 11.1513 11.1515C10.6826 11.6201 10.6826 12.3799 11.1513 12.8486L12.8483 11.1515ZM12.8483 28.8485L20.8483 20.8485L19.1513 19.1516L11.1513 27.1516L12.8483 28.8485ZM20.8483 20.8485L28.8483 12.8486L27.1513 11.1515L19.1513 19.1516L20.8483 20.8485ZM19.1513 20.8485L27.1513 28.8485L28.8483 27.1516L20.8483 19.1516L19.1513 20.8485ZM20.8483 19.1516L12.8483 11.1515L11.1513 12.8486L19.1513 20.8485L20.8483 19.1516Z" fill="black"/>
</svg>