<svg xmlns="http://www.w3.org/2000/svg" width="56" height="56" viewBox="0 0 56 56" fill="none">
<path d="M29.2918 38.5142C28.9603 38.8768 28.4917 39.0833 28.0003 39.0833C27.5089 39.0833 27.0404 38.8768 26.7088 38.5142L17.3755 28.3059C16.7233 27.5926 16.7729 26.4857 17.4862 25.8335C18.1995 25.1813 19.3064 25.2308 19.9586 25.9441L26.2503 32.8258V7C26.2503 6.03351 27.0339 5.25 28.0003 5.25C28.9668 5.25 29.7503 6.03351 29.7503 7V32.8258L36.0422 25.9441C36.6943 25.2308 37.8013 25.1813 38.5146 25.8335C39.2279 26.4857 39.2773 27.5926 38.6252 28.3059L29.2918 38.5142Z" fill="white"/>
<path d="M8.75 35C8.75 34.0335 7.96651 33.25 7 33.25C6.03351 33.25 5.25 34.0335 5.25 35V35.1281C5.24995 38.3192 5.24991 40.8912 5.52188 42.9142C5.80426 45.0144 6.40834 46.7826 7.81282 48.1871C9.2173 49.5917 10.9857 50.1958 13.0859 50.4782C15.1088 50.75 17.6809 50.75 20.872 50.75H35.1281C38.3192 50.75 40.8912 50.75 42.9142 50.4782C45.0144 50.1958 46.7826 49.5917 48.1873 48.1871C49.5917 46.7826 50.1958 45.0144 50.4782 42.9142C50.75 40.8912 50.75 38.3192 50.75 35.1281V35C50.75 34.0335 49.9665 33.25 49 33.25C48.0335 33.25 47.25 34.0335 47.25 35C47.25 38.3493 47.2463 40.6852 47.0094 42.4478C46.7791 44.16 46.3582 45.0665 45.7123 45.7123C45.0665 46.3582 44.16 46.7791 42.4478 47.0094C40.6852 47.2463 38.3493 47.25 35 47.25H21C17.6507 47.25 15.3148 47.2463 13.5523 47.0094C11.8402 46.7791 10.9335 46.3582 10.2877 45.7123C9.64192 45.0665 9.22087 44.16 8.99068 42.4478C8.75371 40.6852 8.75 38.3493 8.75 35Z" fill="white"/>
</svg>