<svg width="27" height="14" viewBox="0 0 27 14" fill="none" xmlns="http://www.w3.org/2000/svg">
<path id="Vector" d="M0.806195 0.795115L0.806203 0.795107C1.48936 0.144345 2.60276 0.144344 3.28591 0.795107L3.28592 0.795112L11.8427 8.94578C12.7575 9.8172 14.2352 9.81746 15.1501 8.94575L23.714 0.788074L23.5071 0.570852L23.714 0.788067C24.3971 0.137311 25.5106 0.137311 26.1937 0.788067L26.1937 0.788096C26.8688 1.43099 26.8688 2.46705 26.1937 3.1099L26.1937 3.10992L16.1879 12.6412C14.7062 14.0525 12.2983 14.053 10.8158 12.6423L0.806192 3.11693C0.806159 3.1169 0.806127 3.11687 0.806094 3.11684C0.131271 2.47398 0.131299 1.43796 0.806195 0.795115Z" fill="#0F0F0F" stroke="#FBFBFB" stroke-width="0.6"/>
</svg>
